<?xml version="1.0" encoding="utf-8"?>
<!-- Generator: Adobe Illustrator 23.0.3, SVG Export Plug-In . SVG Version: 6.00 Build 0)  -->
<svg version="1.1" id="Layer_1" xmlns="http://www.w3.org/2000/svg" xmlns:xlink="http://www.w3.org/1999/xlink" x="0px" y="0px"
	 viewBox="0 0 469.3 469.3" style="enable-background:new 0 0 469.3 469.3;" xml:space="preserve">
<style type="text/css">
	.st0{fill:#607D8B;}
</style>
<g>
	<path class="st0" d="M437.3,192H32c-17.7,0-32,14.3-32,32v21.3c0,17.7,14.3,32,32,32h405.3c17.7,0,32-14.3,32-32V224
		C469.3,206.3,455,192,437.3,192z"/>
	<path class="st0" d="M192,32v405.3c0,17.7,14.3,32,32,32h21.3c17.7,0,32-14.3,32-32V32c0-17.7-14.3-32-32-32H224
		C206.3,0,192,14.3,192,32z"/>
</g>
</svg>
